<?xml version="1.0" standalone="no"?>
<!DOCTYPE svg PUBLIC "-//W3C//DTD SVG 20010904//EN"
 "http://www.w3.org/TR/2001/REC-SVG-20010904/DTD/svg10.dtd">
<svg version="1.0" xmlns="http://www.w3.org/2000/svg"
 width="60px" height="80px" viewBox="0 0 300.000000 265.000000"
 preserveAspectRatio="xMidYMid meet">
<metadata>
Created by potrace 1.10, written by Peter Selinger 2001-2011
</metadata>
<g transform="translate(0.000000,265.000000) scale(0.100000,-0.100000)"
fill="#21b2ab" stroke="none">
<path d="M1105 2493 c-16 -3 -34 -11 -38 -19 -5 -8 -12 -12 -18 -9 -5 4 -21
-2 -37 -13 -32 -23 -174 -84 -180 -77 -2 2 -18 -17 -36 -42 -18 -27 -49 -54
-73 -67 -24 -11 -43 -27 -43 -34 0 -7 -15 -19 -32 -27 -18 -7 -48 -27 -66 -44
-18 -17 -39 -31 -47 -31 -8 0 -22 -13 -32 -30 -9 -16 -20 -30 -24 -30 -4 0 -9
-8 -12 -19 -2 -10 -18 -24 -35 -32 -21 -9 -32 -22 -34 -39 -2 -15 -8 -24 -17
-22 -11 2 -12 0 -3 -11 10 -11 9 -17 -1 -26 -8 -6 -17 -8 -20 -4 -10 9 -45
-76 -67 -164 -24 -96 -27 -270 -5 -373 63 -302 328 -730 655 -1060 123 -124
178 -160 246 -160 56 0 96 29 230 160 242 239 401 454 535 726 122 249 157
387 146 578 -18 296 -181 563 -452 738 -167 109 -363 156 -540 131z m257 -243
c196 -66 391 -247 456 -424 74 -197 47 -436 -67 -607 -69 -103 -100 -136 -112
-118 -10 16 -12 280 -3 326 4 22 14 33 40 42 50 18 64 37 64 86 0 40 -6 50
-65 114 -36 39 -65 77 -66 84 0 6 -1 49 0 94 0 136 -25 182 -102 185 -47 2
-72 -16 -92 -64 l-17 -42 -66 71 c-37 39 -77 76 -89 82 -34 17 -122 14 -129
-4 -4 -8 -10 -12 -15 -9 -5 3 -98 -82 -207 -190 -108 -107 -209 -204 -223
-215 -70 -54 -60 -162 17 -185 28 -8 34 -54 34 -243 0 -111 -3 -144 -12 -141
-22 7 -108 120 -140 183 -39 75 -77 214 -78 280 0 72 27 226 49 284 47 118
158 254 267 326 70 47 170 93 225 105 73 15 258 4 331 -20z m-43 -512 l131
-133 0 -301 c0 -273 -2 -304 -17 -323 -12 -14 -50 -31 -108 -47 -74 -21 -105
-25 -175 -21 -80 4 -224 38 -244 58 -5 4 -8 141 -7 316 l1 307 78 80 c43 45
91 97 107 116 33 38 83 80 96 80 4 0 67 -60 138 -132z"/>
<path d="M1893 2393 c-13 -2 -23 -7 -23 -10 0 -9 71 -96 94 -115 17 -14 41
-18 118 -18 l96 0 -11 30 c-6 17 -15 30 -20 30 -4 0 -5 5 -2 10 3 6 1 10 -5
10 -8 0 -9 10 -5 30 l7 30 -85 0 c-46 0 -97 2 -113 4 -16 2 -39 2 -51 -1z"/>
<path d="M2208 2111 c-58 -3 -109 -9 -113 -13 -19 -19 51 -123 93 -139 18 -7
102 -8 243 -3 241 8 255 12 265 74 4 26 1 42 -14 60 -19 23 -22 24 -193 26
-96 1 -222 -1 -281 -5z"/>
<path d="M2348 1821 c-81 -5 -100 -9 -112 -26 -23 -30 -19 -61 13 -97 l29 -33
192 0 192 0 24 30 c29 35 26 77 -6 110 -18 17 -35 20 -128 21 -59 1 -151 -1
-204 -5z"/>
<path d="M2267 1529 c-22 -13 -47 -68 -47 -102 0 -53 18 -57 248 -57 l210 0
31 25 c16 14 33 34 36 45 7 23 -18 76 -44 90 -27 14 -410 13 -434 -1z"/>
<path d="M2225 1241 c-60 -13 -124 -138 -79 -155 27 -10 424 -7 445 4 20 11
49 60 49 83 0 8 -13 29 -29 46 l-29 31 -164 -1 c-89 -1 -176 -4 -193 -8z"/>
<path d="M2074 940 c-47 -19 -95 -116 -66 -134 5 -3 119 -6 255 -7 230 -2 249
-1 268 17 33 30 41 61 24 93 -8 16 -22 31 -30 35 -25 9 -427 6 -451 -4z"/>
<path d="M2075 670 c-199 -6 -210 -9 -259 -73 -28 -37 -34 -72 -12 -80 28 -11
566 -7 590 4 13 6 32 26 42 45 16 29 16 36 3 60 -19 36 -66 54 -131 52 -29 -1
-134 -5 -233 -8z"/>
<path d="M1613 341 c-26 -21 -61 -52 -77 -69 -27 -30 -28 -30 -8 -41 14 -7
135 -11 361 -11 338 0 340 0 365 23 41 36 43 71 8 107 l-30 30 -285 0 -285 0
-49 -39z"/>
</g>
</svg>
